# xmcd
#
# Track frame offsets:
#	150
#	21897
#	42037
#	63877
#	85147
#	104567
#	126345
#	145475
#	165945
#	189812
#
# Disc length: 2743 seconds
#
# Revision: 7
# Processed by: cddbd v1.4PL0 Copyright (c) Steve Scherf et al.
# Submitted via: dBpowerAMP V4.0
#
DISCID=7c0ab50a
DTITLE=Victor Manuelle - Instinto y Deseo
DYEAR=2001
DGENRE=Salsa
TTITLE0=No Eres La Mujer
TTITLE1=Me Da Lo Mismo
TTITLE2=Lejos
TTITLE3=Cómo Se Lo Explico Al Corazón
TTITLE4=Quisiera Inventar
TTITLE5=Te Voy A Encontar
TTITLE6=Instinto y Deseo (Salsa Version)
TTITLE7=Ni Un Día Más
TTITLE8=Así Fue
TTITLE9=Instinto y Deseo (Pop Version)
EXTD=
EXTT0=
EXTT1=
EXTT2=
EXTT3=
EXTT4=
EXTT5=
EXTT6=
EXTT7=
EXTT8=
EXTT9=
PLAYORDER=
